<?xml version="1.0" standalone="no"?>
<!DOCTYPE svg PUBLIC "-//W3C//DTD SVG 20010904//EN"
 "http://www.w3.org/TR/2001/REC-SVG-20010904/DTD/svg10.dtd">
<svg version="1.0" xmlns="http://www.w3.org/2000/svg"
 width="817.000000pt" height="705.000000pt" viewBox="0 0 817.000000 705.000000"
 preserveAspectRatio="xMidYMid meet">

<g transform="translate(0.000000,705.000000) scale(0.100000,-0.100000)"
fill="#000000" stroke="none">
<path d="M3799 6583 c-128 -257 -279 -556 -334 -663 -56 -107 -150 -289 -210
-405 -59 -115 -163 -316 -230 -445 -67 -129 -164 -316 -215 -415 -51 -99 -95
-184 -100 -190 -18 -25 -437 -853 -509 -1006 -53 -114 -99 -206 -182 -364 -34
-66 -79 -154 -100 -195 -62 -123 -58 -121 -112 -61 -53 59 -79 123 -98 234
l-13 77 -68 0 -68 0 0 -560 0 -560 746 2 745 3 80 155 c44 85 112 215 151 289
53 100 67 135 57 141 -7 5 -148 9 -313 10 -165 0 -301 2 -303 3 -1 2 35 79 82
173 279 560 327 655 360 709 20 33 99 186 175 340 335 674 669 1303 697 1312
7 3 32 -31 57 -74 25 -43 53 -89 63 -102 32 -41 297 -549 567 -1086 144 -286
273 -536 287 -556 13 -20 62 -114 108 -210 46 -96 122 -249 168 -341 l85 -168
-284 -1 c-156 -1 -293 -4 -305 -7 -25 -8 -41 26 196 -430 l84 -162 749 0 748
0 -2 558 -3 557 -68 3 c-49 2 -68 -1 -71 -10 -2 -7 -8 -43 -14 -81 -6 -37 -23
-96 -40 -130 -30 -66 -86 -137 -106 -137 -6 0 -29 33 -50 73 -144 271 -214
407 -262 507 -30 63 -58 122 -63 131 -5 9 -93 182 -196 385 -103 203 -191 374
-195 379 -7 9 -338 648 -572 1105 -56 107 -120 231 -143 275 -24 44 -120 233
-214 420 -293 584 -500 976 -518 982 -6 2 -116 -207 -244 -464z"/>
<path d="M4410 6882 c0 -2 41 -85 91 -184 l92 -179 54 -25 c192 -84 437 -286
584 -479 242 -318 362 -721 376 -1260 l5 -220 33 -60 c18 -33 126 -244 240
-470 114 -225 214 -420 222 -433 l14 -23 25 36 c13 20 24 38 24 40 0 3 15 28
33 57 52 82 123 253 175 418 98 315 113 796 36 1160 -61 285 -200 570 -392
805 -97 119 -135 157 -267 269 -181 154 -419 301 -592 366 -32 12 -71 28 -88
35 -52 24 -257 83 -325 94 -36 6 -83 16 -105 22 -46 12 -235 37 -235 31z"/>
<path d="M3640 6873 c-134 -25 -536 -129 -611 -159 -506 -200 -939 -598 -1173
-1079 -160 -327 -221 -668 -196 -1082 16 -277 47 -402 178 -740 22 -57 130
-243 141 -243 3 0 46 78 94 173 83 164 205 403 378 735 l79 152 0 143 c0 445
117 856 335 1182 159 237 346 410 567 524 l70 36 95 183 c55 105 89 181 81
181 -7 -1 -24 -4 -38 -6z"/>
<path d="M4001 4623 c-23 -49 -114 -225 -201 -393 -87 -168 -207 -402 -267
-520 -61 -118 -181 -351 -268 -518 -86 -167 -156 -305 -154 -306 12 -11 230
-67 282 -72 l62 -6 48 98 c27 55 141 277 253 494 113 217 219 423 237 457 35
69 55 99 61 92 24 -28 596 -1112 596 -1130 0 -4 4 -10 9 -13 11 -7 157 19 206
37 22 8 61 22 88 32 l47 17 -171 336 c-94 186 -175 342 -179 347 -4 6 -61 116
-127 245 -304 594 -357 696 -368 710 -7 8 -31 52 -54 98 -23 45 -45 82 -49 82
-4 0 -27 -39 -51 -87z"/>
<path d="M162 1414 c-59 -29 -106 -79 -136 -143 -20 -45 -21 -59 -21 -551 0
-492 1 -506 21 -551 30 -64 77 -114 136 -143 l52 -26 510 0 c492 0 513 1 556
21 55 25 114 80 143 134 22 40 22 46 22 565 0 519 0 525 -22 565 -29 54 -88
109 -143 134 -43 20 -64 21 -556 21 l-510 0 -52 -26z m1013 -694 l0 -445 -447
-3 -448 -2 0 450 0 450 448 -2 447 -3 0 -445z"/>
<path d="M1670 720 l0 -720 135 0 135 0 2 518 3 518 269 -318 c212 -250 272
-316 281 -306 7 7 129 152 271 322 l259 309 3 -521 2 -522 135 0 135 0 0 720
0 720 -152 -1 -153 0 -253 -305 c-140 -167 -258 -302 -263 -299 -4 3 -121 141
-260 305 l-251 300 -149 0 -149 0 0 -720z"/>
<path d="M3530 720 l0 -720 670 0 670 0 0 135 0 135 -530 0 -530 0 0 155 0
155 425 0 425 0 0 140 0 140 -425 0 -425 0 0 155 0 155 530 0 530 0 0 135 0
135 -670 0 -670 0 0 -720z"/>
<path d="M5230 1419 c-55 -25 -114 -80 -143 -134 -22 -40 -22 -46 -22 -565 0
-519 0 -525 22 -565 29 -54 88 -109 143 -134 43 -20 64 -21 546 -21 556 0 550
-1 630 65 25 21 54 59 71 93 l28 57 3 303 4 302 -301 0 -301 0 0 -135 0 -135
160 0 161 0 -3 -137 -3 -138 -445 0 -445 0 0 445 0 445 445 0 445 0 3 -57 3
-58 141 0 141 0 -6 91 c-7 112 -37 182 -101 234 -80 66 -74 65 -630 65 -482 0
-503 -1 -546 -21z"/>
<path d="M6882 1414 c-56 -28 -100 -72 -134 -137 l-23 -42 -3 -617 -3 -618
136 0 135 0 0 240 0 240 455 0 455 0 0 -240 0 -240 135 0 135 0 0 598 c0 672
1 664 -70 745 -22 25 -64 57 -92 71 l-52 26 -511 0 -511 0 -52 -26z m1012
-260 c3 -9 6 -103 6 -210 l0 -194 -455 0 -455 0 0 194 c0 107 3 201 6 210 5
14 54 16 449 16 395 0 444 -2 449 -16z"/>
</g>
</svg>
